<svg id="Group_112" data-name="Group 112" xmlns="http://www.w3.org/2000/svg" xmlns:xlink="http://www.w3.org/1999/xlink" width="45.952" height="32.123" viewBox="0 0 45.952 32.123">
  <defs>
    <clipPath id="clip-path">
      <rect id="Rectangle_159" data-name="Rectangle 159" width="45.952" height="32.123" fill="#3a3939"/>
    </clipPath>
  </defs>
  <g id="Group_111" data-name="Group 111" clip-path="url(#clip-path)">
    <path id="Path_1312" data-name="Path 1312" d="M26.553,1.25h0a4.267,4.267,0,0,0,0,6.035l3.186,3.187a.774.774,0,0,1-.548,1.322H4.268a4.268,4.268,0,1,0,0,8.535H29.191a.775.775,0,0,1,.548,1.323l-3.186,3.186a4.267,4.267,0,0,0,6.035,6.035L44.929,18.532a3.493,3.493,0,0,0,0-4.94L32.588,1.25a4.267,4.267,0,0,0-6.035,0" fill="#3a3939"/>
  </g>
</svg>
